<svg width="553" height="559" viewBox="0 0 553 559" fill="none" xmlns="http://www.w3.org/2000/svg">
<path d="M174.5 76C173.3 74 166.667 68 163.5 65.5C163.5 65.1 313.5 65.3333 388.5 65.5C384.667 68.1667 376.6 73.8 375 75C373.4 76.2 368.667 82.1667 366.5 85H182C180 82.8333 175.7 78 174.5 76Z" fill="#6B48E9"/>
<path d="M358.5 99.5H193L202.5 116.5H349.5L358.5 99.5Z" fill="#6B48E9"/>
<path d="M115.5 0H17.5C19.1667 4.16667 23 13.2 25 16C27.5 19.5 40.5 25 48 25C55.5 25 61.5 22.5 76 21.5C90.5 20.5 101 28 104.5 32.5C107.3 36.1 111.333 45 113 49C117.5 49 127.6 49.2 132 50C136.4 50.8 144.833 54 148.5 55.5C155.167 55.3333 168.5 54.8 168.5 54C168.5 53 165.5 43.5 163.5 39.5C161.5 35.5 155.5 29 149.5 21.5C144.7 15.5 124.833 4.66667 115.5 0Z" fill="#6B48E9"/>
<path fill-rule="evenodd" clip-rule="evenodd" d="M99.5 209.5V233.5H130.5C151.167 227.5 192.3 201.5 191.5 145.5C190.7 89.5 147.5 68.1667 126 64.5H36.5C33.6667 66 27.5 69.6 25.5 72C23.5 74.4 20 81.3333 18.5 84.5H119.5C132 86 169.5 111.9 169.5 145.5C169.5 187.5 133 209.5 128 209.5H99.5ZM16.5 110.5V98.5V97C44.3333 96.8333 102.3 96.6 111.5 97C123 97.5 136.5 108 142 114C147.5 120 156 133 156 151C156 169 141 184 136.5 188C132 192 117.5 196.5 114 196.5C110.5 196.5 104 195.5 102.5 194.5C101.3 193.7 98 192 95.5 191.5H85.5V264.5L89 269L90 272C90 273.423 89.3418 274.34 88.5297 275.471C88.2006 275.929 87.8461 276.423 87.5 277C86.2552 279.075 83.2887 281.494 80.6008 283.685C80.0498 284.135 79.5104 284.575 79 285C76 287.5 66 292 56.5 292.5C47 293 41.5 289.5 36 284C31.6 279.6 26 259 26 252C26.1688 251.831 28.0009 251.776 30.5236 251.701H30.5238C35.4748 251.553 43.0852 251.325 46 250C51.5 247.5 58 241.5 59.5 238.5C60.5 236.5 60.5 235.5 59.5 230C58.7 225.6 53 225.5 51.5 226C50.9797 226.173 49.8215 227.298 48.2302 228.842C45.2341 231.75 40.7024 236.149 36 238.5C27 243 22 241 19 239.5C16.4956 238.248 6.5 227 11 226C14.4598 225.231 21.7618 223.812 25.8618 223.015L25.8635 223.015C27.0954 222.776 28.0379 222.592 28.5 222.5C31 222 43.5 219.5 46 216C48.5 212.5 44.5 205 40.5 205C38.3029 205 36.6086 205.236 35.5466 205.383C35.0619 205.451 34.7089 205.5 34.5 205.5C25.1667 211.167 5.80001 221.8 3.00001 221C0.200012 220.2 0.166679 217.333 0.500012 216L6 168L16.5 121C24.2763 121.21 35.7628 121.279 47.2093 121.348H47.2098C62.9948 121.442 78.7034 121.536 84.5 122C95.2018 122.856 101.139 127.744 107.019 132.584C108.007 133.397 108.993 134.209 110 135C117 140.5 120.5 147 121 155C121.4 161.4 117.5 166.333 115.5 168L117.5 172.5C119.667 171.833 124.9 169.2 128.5 164C133 157.5 135.5 152.5 131.5 137.5C128.3 125.5 109 113.5 98.5 112L16.5 110.5ZM68.5 173C80.9264 173 91 162.926 91 150.5C91 138.074 80.9264 128 68.5 128C56.0736 128 46 138.074 46 150.5C46 162.926 56.0736 173 68.5 173ZM68.5 161C74.299 161 79 156.299 79 150.5C79 144.701 74.299 140 68.5 140C62.701 140 58 144.701 58 150.5C58 156.299 62.701 161 68.5 161Z" fill="#6B48E9"/>
<path d="M227 129H206.5V167.5C206.5 170.5 205 182 198.5 196C193.3 207.2 173.667 226.667 164.5 235H227V129Z" fill="#6B48E9"/>
<path d="M64.5 49.5V33.5H84C86.5 34.5 90.5 37.1 92.5 39.5C95 42.5 96.8333 47 97.5 49.5H64.5Z" fill="#6B48E9"/>
<path d="M437.856 0H535.856C534.19 4.16667 530.356 13.2 528.356 16C525.856 19.5 512.856 25 505.356 25C497.856 25 491.856 22.5 477.356 21.5C462.856 20.5 452.356 28 448.856 32.5C446.056 36.1 442.023 45 440.356 49C435.856 49 425.756 49.2 421.356 50C416.956 50.8 408.523 54 404.856 55.5C398.19 55.3333 384.856 54.8 384.856 54C384.856 53 387.856 43.5 389.856 39.5C391.856 35.5 397.856 29 403.856 21.5C408.656 15.5 428.523 4.66667 437.856 0Z" fill="#6B48E9"/>
<path fill-rule="evenodd" clip-rule="evenodd" d="M453.856 209.5V233.5H422.856C402.19 227.5 361.056 201.5 361.856 145.5C362.656 89.5 405.856 68.1667 427.356 64.5H516.856C519.69 66 525.856 69.6 527.856 72C529.856 74.4 533.356 81.3333 534.856 84.5H433.856C421.356 86 383.856 111.9 383.856 145.5C383.856 187.5 420.356 209.5 425.356 209.5H453.856ZM536.856 110.5V98.5V97C509.023 96.8333 451.056 96.6 441.856 97C430.356 97.5 416.856 108 411.356 114C405.856 120 397.356 133 397.356 151C397.356 169 412.356 184 416.856 188C421.356 192 435.856 196.5 439.356 196.5C442.856 196.5 449.356 195.5 450.856 194.5C452.056 193.7 455.356 192 457.856 191.5H467.856V264.5L464.356 269L463.356 272C463.356 273.423 464.014 274.34 464.827 275.471C465.156 275.929 465.51 276.423 465.856 277C467.101 279.075 470.068 281.494 472.755 283.685C473.306 284.135 473.846 284.575 474.356 285C477.356 287.5 487.356 292 496.856 292.5C506.356 293 511.856 289.5 517.356 284C521.756 279.6 527.356 259 527.356 252C527.187 251.831 525.355 251.776 522.833 251.701H522.832C517.881 251.553 510.271 251.325 507.356 250C501.856 247.5 495.356 241.5 493.856 238.5C492.856 236.5 492.856 235.5 493.856 230C494.656 225.6 500.356 225.5 501.856 226C502.377 226.173 503.535 227.298 505.126 228.842C508.122 231.75 512.654 236.149 517.356 238.5C526.356 243 531.356 241 534.356 239.5C536.861 238.248 546.856 227 542.356 226C538.896 225.231 531.594 223.812 527.494 223.015L527.493 223.015C526.261 222.776 525.318 222.592 524.856 222.5C522.356 222 509.856 219.5 507.356 216C504.856 212.5 508.856 205 512.856 205C515.053 205 516.748 205.236 517.81 205.383C518.294 205.451 518.647 205.5 518.856 205.5C528.19 211.167 547.556 221.8 550.356 221C553.156 220.2 553.19 217.333 552.856 216L547.356 168L536.856 121C529.08 121.21 517.593 121.279 506.147 121.348H506.146C490.361 121.442 474.653 121.536 468.856 122C458.154 122.856 452.217 127.744 446.337 132.584C445.35 133.397 444.363 134.209 443.356 135C436.356 140.5 432.856 147 432.356 155C431.956 161.4 435.856 166.333 437.856 168L435.856 172.5C433.69 171.833 428.456 169.2 424.856 164C420.356 157.5 417.856 152.5 421.856 137.5C425.056 125.5 444.356 113.5 454.856 112L536.856 110.5ZM484.856 173C472.43 173 462.356 162.926 462.356 150.5C462.356 138.074 472.43 128 484.856 128C497.283 128 507.356 138.074 507.356 150.5C507.356 162.926 497.283 173 484.856 173ZM484.856 161C479.057 161 474.356 156.299 474.356 150.5C474.356 144.701 479.057 140 484.856 140C490.655 140 495.356 144.701 495.356 150.5C495.356 156.299 490.655 161 484.856 161Z" fill="#6B48E9"/>
<path d="M326.356 129H346.856V167.5C346.856 170.5 348.356 182 354.856 196C360.056 207.2 379.69 226.667 388.856 235H326.356V129Z" fill="#6B48E9"/>
<path d="M488.856 49.5V33.5H469.356C466.856 34.5 462.856 37.1 460.856 39.5C458.356 42.5 456.523 47 455.856 49.5H488.856Z" fill="#6B48E9"/>
<path fill-rule="evenodd" clip-rule="evenodd" d="M117 375H277H437C436.333 378 434.9 384.8 434.5 388C434.181 390.551 432.642 392.492 430.66 394.991C429.535 396.409 428.268 398.008 427 400C424.2 404.4 410.5 414.167 404 418.5C401.167 422 395.5 430 395.5 434V450H277H158.5V434C158.5 430 152.833 422 150 418.5C143.5 414.167 129.8 404.4 127 400C125.732 398.008 124.465 396.409 123.34 394.991C121.358 392.492 119.819 390.551 119.5 388C119.1 384.8 117.667 378 117 375ZM184 437.5C198.359 437.5 210 425.859 210 411.5C210 397.141 198.359 385.5 184 385.5C169.641 385.5 158 397.141 158 411.5C158 425.859 169.641 437.5 184 437.5ZM183.581 424.919C190.76 424.919 196.581 419.099 196.581 411.919C196.581 404.74 190.76 398.919 183.581 398.919C176.401 398.919 170.581 404.74 170.581 411.919C170.581 419.099 176.401 424.919 183.581 424.919ZM272 411.5C272 425.859 260.359 437.5 246 437.5C231.641 437.5 220 425.859 220 411.5C220 397.141 231.641 385.5 246 385.5C260.359 385.5 272 397.141 272 411.5ZM258.581 411.919C258.581 419.099 252.76 424.919 245.581 424.919C238.401 424.919 232.581 419.099 232.581 411.919C232.581 404.74 238.401 398.919 245.581 398.919C252.76 398.919 258.581 404.74 258.581 411.919ZM370 437.5C355.641 437.5 344 425.859 344 411.5C344 397.141 355.641 385.5 370 385.5C384.359 385.5 396 397.141 396 411.5C396 425.859 384.359 437.5 370 437.5ZM370.419 424.919C363.24 424.919 357.419 419.099 357.419 411.919C357.419 404.74 363.24 398.919 370.419 398.919C377.599 398.919 383.419 404.74 383.419 411.919C383.419 419.099 377.599 424.919 370.419 424.919ZM282 411.5C282 425.859 293.641 437.5 308 437.5C322.359 437.5 334 425.859 334 411.5C334 397.141 322.359 385.5 308 385.5C293.641 385.5 282 397.141 282 411.5ZM295.419 411.919C295.419 419.099 301.24 424.919 308.419 424.919C315.599 424.919 321.419 419.099 321.419 411.919C321.419 404.74 315.599 398.919 308.419 398.919C301.24 398.919 295.419 404.74 295.419 411.919Z" fill="#6B48E9"/>
<path d="M153 462H401V472C401 476.418 397.418 480 393 480H161C156.582 480 153 476.418 153 472V462Z" fill="#6B48E9"/>
<path d="M100 247H455V257C455 261.418 451.418 265 447 265H108C103.582 265 100 261.418 100 257V247Z" fill="#6B48E9"/>
<rect x="168" y="480" width="24" height="79" fill="#6B48E9"/>
<rect x="201" y="480" width="24" height="79" fill="#6B48E9"/>
<rect x="234" y="480" width="24" height="79" fill="#6B48E9"/>
<rect x="298" y="480" width="24" height="79" fill="#6B48E9"/>
<rect x="267" y="480" width="24" height="79" fill="#6B48E9"/>
<rect x="331" y="480" width="24" height="79" fill="#6B48E9"/>
<rect x="364" y="480" width="24" height="79" fill="#6B48E9"/>
<rect x="268" y="129" width="17" height="106" fill="#6B48E9"/>
<rect x="239" y="129" width="17" height="106" fill="#6B48E9"/>
<rect x="297" y="129" width="17" height="106" fill="#6B48E9"/>
<rect x="114" y="279" width="20" height="80" fill="#6B48E9"/>
<rect x="421" y="279" width="20" height="80" fill="#6B48E9"/>
<rect x="145" y="279" width="14" height="80" fill="#6B48E9"/>
<rect x="170" y="279" width="14" height="80" fill="#6B48E9"/>
<rect x="370" y="279" width="14" height="80" fill="#6B48E9"/>
<rect x="345" y="279" width="14" height="80" fill="#6B48E9"/>
<rect x="395" y="279" width="14" height="80" fill="#6B48E9"/>
<rect x="295" y="279" width="14" height="80" fill="#6B48E9"/>
<rect x="320" y="279" width="14" height="80" fill="#6B48E9"/>
<rect x="245" y="279" width="14" height="80" fill="#6B48E9"/>
<rect x="270" y="279" width="14" height="80" fill="#6B48E9"/>
<rect x="195" y="279" width="14" height="80" fill="#6B48E9"/>
<rect x="220" y="279" width="14" height="80" fill="#6B48E9"/>
</svg>
