<svg width="553" height="559" viewBox="0 0 553 559" fill="none" xmlns="http://www.w3.org/2000/svg">
<path d="M174.144 76C172.944 74 166.31 68 163.144 65.5C163.144 65.1 313.144 65.3334 388.144 65.5C384.31 68.1667 376.244 73.8 374.644 75C373.044 76.2 368.31 82.1667 366.144 85H181.644C179.644 82.8334 175.344 78 174.144 76Z" fill="white"/>
<path d="M358.144 99.5H192.644L202.144 116.5H349.144L358.144 99.5Z" fill="white"/>
<path d="M115.144 0H17.1437C18.8104 4.16667 22.6437 13.2 24.6437 16C27.1437 19.5 40.1437 25 47.6437 25C55.1437 25 61.1437 22.5 75.6437 21.5C90.1437 20.5 100.644 28 104.144 32.5C106.944 36.1 110.977 45 112.644 49C117.144 49 127.244 49.2 131.644 50C136.044 50.8 144.477 54 148.144 55.5C154.81 55.3333 168.144 54.8 168.144 54C168.144 53 165.144 43.5 163.144 39.5C161.144 35.5 155.144 29 149.144 21.5C144.344 15.5 124.477 4.66667 115.144 0Z" fill="white"/>
<path fill-rule="evenodd" clip-rule="evenodd" d="M99.1437 209.5V233.5H130.144C150.81 227.5 191.944 201.5 191.144 145.5C190.344 89.5 147.144 68.1667 125.644 64.5H36.1437C33.3104 66 27.1437 69.6 25.1437 72C23.1437 74.4 19.6437 81.3333 18.1437 84.5H119.144C131.644 86 169.144 111.9 169.144 145.5C169.144 187.5 132.644 209.5 127.644 209.5H99.1437ZM16.1437 110.5V98.5V97C43.9771 96.8333 101.944 96.6 111.144 97C122.644 97.5 136.144 108 141.644 114C147.144 120 155.644 133 155.644 151C155.644 169 140.644 184 136.144 188C131.644 192 117.144 196.5 113.644 196.5C110.144 196.5 103.644 195.5 102.144 194.5C100.944 193.7 97.6437 192 95.1437 191.5H85.1437V264.5L88.6437 269L89.6437 272C89.6437 273.423 88.9855 274.34 88.1735 275.471C87.8443 275.929 87.4899 276.423 87.1437 277C85.8989 279.075 82.9325 281.494 80.2446 283.685C79.6935 284.135 79.1542 284.575 78.6437 285C75.6437 287.5 65.6437 292 56.1437 292.5C46.6437 293 41.1437 289.5 35.6437 284C31.2437 279.6 25.6437 259 25.6437 252C25.8125 251.831 27.6447 251.776 30.1673 251.701H30.1675C35.1185 251.553 42.7289 251.325 45.6437 250C51.1437 247.5 57.6437 241.5 59.1437 238.5C60.1437 236.5 60.1437 235.5 59.1437 230C58.3437 225.6 52.6437 225.5 51.1437 226C50.6234 226.173 49.4653 227.298 47.8739 228.842C44.8779 231.75 40.3461 236.149 35.6437 238.5C26.6437 243 21.6437 241 18.6437 239.5C16.1393 238.248 6.14374 227 10.6437 226C14.1035 225.231 21.4056 223.812 25.5055 223.015L25.5073 223.015C26.7391 222.776 27.6816 222.592 28.1437 222.5C30.6437 222 43.1437 219.5 45.6437 216C48.1437 212.5 44.1437 205 40.1437 205C37.9466 205 36.2523 205.236 35.1904 205.383C34.7056 205.451 34.3527 205.5 34.1437 205.5C24.8104 211.167 5.44375 221.8 2.64375 221C-0.15625 220.2 -0.189583 217.333 0.14375 216L5.64374 168L16.1437 121C23.92 121.21 35.4066 121.279 46.8531 121.348H46.8536C62.6386 121.442 78.3472 121.536 84.1437 122C94.8456 122.856 100.783 127.744 106.663 132.584C107.65 133.397 108.637 134.209 109.644 135C116.644 140.5 120.144 147 120.644 155C121.044 161.4 117.144 166.333 115.144 168L117.144 172.5C119.31 171.833 124.544 169.2 128.144 164C132.644 157.5 135.144 152.5 131.144 137.5C127.944 125.5 108.644 113.5 98.1437 112L16.1437 110.5ZM68.1437 173C80.5701 173 90.6437 162.926 90.6437 150.5C90.6437 138.074 80.5701 128 68.1437 128C55.7173 128 45.6437 138.074 45.6437 150.5C45.6437 162.926 55.7173 173 68.1437 173ZM68.1437 161C73.9427 161 78.6437 156.299 78.6437 150.5C78.6437 144.701 73.9427 140 68.1437 140C62.3447 140 57.6437 144.701 57.6437 150.5C57.6437 156.299 62.3447 161 68.1437 161Z" fill="white"/>
<path d="M226.644 129H206.144V167.5C206.144 170.5 204.644 182 198.144 196C192.944 207.2 173.31 226.667 164.144 235H226.644V129Z" fill="white"/>
<path d="M64.1437 49.5V33.5H83.6437C86.1437 34.5 90.1437 37.1 92.1437 39.5C94.6437 42.5 96.4771 47 97.1437 49.5H64.1437Z" fill="white"/>
<path d="M326 129H346.5V167.5C346.5 170.5 348 182 354.5 196C359.7 207.2 379.333 226.667 388.5 235H326V129Z" fill="white"/>
<path d="M437.5 0H535.5C533.833 4.16667 530 13.2 528 16C525.5 19.5 512.5 25 505 25C497.5 25 491.5 22.5 477 21.5C462.5 20.5 452 28 448.5 32.5C445.7 36.1 441.667 45 440 49C435.5 49 425.4 49.2 421 50C416.6 50.8 408.167 54 404.5 55.5C397.833 55.3333 384.5 54.8 384.5 54C384.5 53 387.5 43.5 389.5 39.5C391.5 35.5 397.5 29 403.5 21.5C408.3 15.5 428.167 4.66667 437.5 0Z" fill="white"/>
<path fill-rule="evenodd" clip-rule="evenodd" d="M453.5 209.5V233.5H422.5C401.833 227.5 360.7 201.5 361.5 145.5C362.3 89.5 405.5 68.1667 427 64.5H516.5C519.333 66 525.5 69.6 527.5 72C529.5 74.4 533 81.3333 534.5 84.5H433.5C421 86 383.5 111.9 383.5 145.5C383.5 187.5 420 209.5 425 209.5H453.5ZM536.5 110.5V98.5V97C508.667 96.8333 450.7 96.6 441.5 97C430 97.5 416.5 108 411 114C405.5 120 397 133 397 151C397 169 412 184 416.5 188C421 192 435.5 196.5 439 196.5C442.5 196.5 449 195.5 450.5 194.5C451.7 193.7 455 192 457.5 191.5H467.5V264.5L464 269L463 272C463 273.423 463.658 274.34 464.47 275.471C464.799 275.929 465.154 276.423 465.5 277C466.745 279.075 469.711 281.494 472.399 283.685C472.95 284.135 473.49 284.575 474 285C477 287.5 487 292 496.5 292.5C506 293 511.5 289.5 517 284C521.4 279.6 527 259 527 252C526.831 251.831 524.999 251.776 522.476 251.701H522.476C517.525 251.553 509.915 251.325 507 250C501.5 247.5 495 241.5 493.5 238.5C492.5 236.5 492.5 235.5 493.5 230C494.3 225.6 500 225.5 501.5 226C502.02 226.173 503.178 227.298 504.77 228.842C507.766 231.75 512.298 236.149 517 238.5C526 243 531 241 534 239.5C536.504 238.248 546.5 227 542 226C538.54 225.231 531.238 223.812 527.138 223.015L527.136 223.015C525.905 222.776 524.962 222.592 524.5 222.5C522 222 509.5 219.5 507 216C504.5 212.5 508.5 205 512.5 205C514.697 205 516.391 205.236 517.453 205.383C517.938 205.451 518.291 205.5 518.5 205.5C527.833 211.167 547.2 221.8 550 221C552.8 220.2 552.833 217.333 552.5 216L547 168L536.5 121C528.724 121.21 517.237 121.279 505.791 121.348H505.79C490.005 121.442 474.297 121.536 468.5 122C457.798 122.856 451.861 127.744 445.981 132.584C444.993 133.397 444.007 134.209 443 135C436 140.5 432.5 147 432 155C431.6 161.4 435.5 166.333 437.5 168L435.5 172.5C433.333 171.833 428.1 169.2 424.5 164C420 157.5 417.5 152.5 421.5 137.5C424.7 125.5 444 113.5 454.5 112L536.5 110.5ZM484.5 173C472.074 173 462 162.926 462 150.5C462 138.074 472.074 128 484.5 128C496.926 128 507 138.074 507 150.5C507 162.926 496.926 173 484.5 173ZM484.5 161C478.701 161 474 156.299 474 150.5C474 144.701 478.701 140 484.5 140C490.299 140 495 144.701 495 150.5C495 156.299 490.299 161 484.5 161Z" fill="white"/>
<path d="M488.5 49.5V33.5H469C466.5 34.5 462.5 37.1 460.5 39.5C458 42.5 456.167 47 455.5 49.5H488.5Z" fill="white"/>
<path fill-rule="evenodd" clip-rule="evenodd" d="M116.644 375H276.644H436.644C435.977 378 434.544 384.8 434.144 388C433.825 390.551 432.286 392.492 430.304 394.991C429.179 396.409 427.911 398.008 426.644 400C423.844 404.4 410.144 414.167 403.644 418.5C400.81 422 395.144 430 395.144 434V450H276.644H158.144V434C158.144 430 152.477 422 149.644 418.5C143.144 414.167 129.444 404.4 126.644 400C125.376 398.008 124.108 396.409 122.983 394.991C121.002 392.492 119.463 390.551 119.144 388C118.744 384.8 117.31 378 116.644 375ZM183.644 437.5C198.003 437.5 209.644 425.859 209.644 411.5C209.644 397.141 198.003 385.5 183.644 385.5C169.284 385.5 157.644 397.141 157.644 411.5C157.644 425.859 169.284 437.5 183.644 437.5ZM183.224 424.919C190.404 424.919 196.224 419.099 196.224 411.919C196.224 404.74 190.404 398.919 183.224 398.919C176.045 398.919 170.224 404.74 170.224 411.919C170.224 419.099 176.045 424.919 183.224 424.919ZM271.644 411.5C271.644 425.859 260.003 437.5 245.644 437.5C231.284 437.5 219.644 425.859 219.644 411.5C219.644 397.141 231.284 385.5 245.644 385.5C260.003 385.5 271.644 397.141 271.644 411.5ZM258.224 411.919C258.224 419.099 252.404 424.919 245.224 424.919C238.045 424.919 232.224 419.099 232.224 411.919C232.224 404.74 238.045 398.919 245.224 398.919C252.404 398.919 258.224 404.74 258.224 411.919ZM369.644 437.5C355.284 437.5 343.644 425.859 343.644 411.5C343.644 397.141 355.284 385.5 369.644 385.5C384.003 385.5 395.644 397.141 395.644 411.5C395.644 425.859 384.003 437.5 369.644 437.5ZM370.063 424.919C362.883 424.919 357.063 419.099 357.063 411.919C357.063 404.74 362.883 398.919 370.063 398.919C377.243 398.919 383.063 404.74 383.063 411.919C383.063 419.099 377.243 424.919 370.063 424.919ZM281.644 411.5C281.644 425.859 293.284 437.5 307.644 437.5C322.003 437.5 333.644 425.859 333.644 411.5C333.644 397.141 322.003 385.5 307.644 385.5C293.284 385.5 281.644 397.141 281.644 411.5ZM295.063 411.919C295.063 419.099 300.883 424.919 308.063 424.919C315.243 424.919 321.063 419.099 321.063 411.919C321.063 404.74 315.243 398.919 308.063 398.919C300.883 398.919 295.063 404.74 295.063 411.919Z" fill="white"/>
<path d="M152.644 462H400.644V472C400.644 476.418 397.062 480 392.644 480H160.644C156.225 480 152.644 476.418 152.644 472V462Z" fill="white"/>
<path d="M99.6437 247H454.644V257C454.644 261.418 451.062 265 446.644 265H107.644C103.225 265 99.6437 261.418 99.6437 257V247Z" fill="white"/>
<rect x="167.644" y="480" width="24" height="79" fill="white"/>
<rect x="200.644" y="480" width="24" height="79" fill="white"/>
<rect x="233.644" y="480" width="24" height="79" fill="white"/>
<rect x="297.644" y="480" width="24" height="79" fill="white"/>
<rect x="266.644" y="480" width="24" height="79" fill="white"/>
<rect x="330.644" y="480" width="24" height="79" fill="white"/>
<rect x="363.644" y="480" width="24" height="79" fill="white"/>
<rect x="267.644" y="129" width="17" height="106" fill="white"/>
<rect x="238.644" y="129" width="17" height="106" fill="white"/>
<rect x="296.644" y="129" width="17" height="106" fill="white"/>
<rect x="113.644" y="279" width="20" height="80" fill="white"/>
<rect x="420.644" y="279" width="20" height="80" fill="white"/>
<rect x="144.644" y="279" width="14" height="80" fill="white"/>
<rect x="169.644" y="279" width="14" height="80" fill="white"/>
<rect x="369.644" y="279" width="14" height="80" fill="white"/>
<rect x="344.644" y="279" width="14" height="80" fill="white"/>
<rect x="394.644" y="279" width="14" height="80" fill="white"/>
<rect x="294.644" y="279" width="14" height="80" fill="white"/>
<rect x="319.644" y="279" width="14" height="80" fill="white"/>
<rect x="244.644" y="279" width="14" height="80" fill="white"/>
<rect x="269.644" y="279" width="14" height="80" fill="white"/>
<rect x="194.644" y="279" width="14" height="80" fill="white"/>
<rect x="219.644" y="279" width="14" height="80" fill="white"/>
</svg>
