<svg width="192" height="293" viewBox="0 0 192 293" fill="none" xmlns="http://www.w3.org/2000/svg">
<path d="M76.5 0H174.5C172.833 4.16667 169 13.2 167 16C164.5 19.5 151.5 25 144 25C136.5 25 130.5 22.5 116 21.5C101.5 20.5 91 28 87.5 32.5C84.7 36.1 80.6667 45 79 49C74.5 49 64.4 49.2 60 50C55.6 50.8 47.1667 54 43.5 55.5C36.8333 55.3333 23.5 54.8 23.5 54C23.5 53 26.5 43.5 28.5 39.5C30.5 35.5 36.5 29 42.5 21.5C47.3 15.5 67.1667 4.66667 76.5 0Z" fill="white"/>
<path fill-rule="evenodd" clip-rule="evenodd" d="M92.5 209.5V233.5H61.5C40.8333 227.5 -0.300001 201.5 0.500002 145.5C1.3 89.5 44.5 68.1667 66 64.5H155.5C158.333 66 164.5 69.6 166.5 72C168.5 74.4 172 81.3333 173.5 84.5H72.5C60 86 22.5 111.9 22.5 145.5C22.5 187.5 59 209.5 64 209.5H92.5ZM175.5 110.5V98.5V97C147.667 96.8333 89.7 96.6 80.5 97C69 97.5 55.5 108 50 114C44.5 120 36 133 36 151C36 169 51 184 55.5 188C60 192 74.5 196.5 78 196.5C81.5 196.5 88 195.5 89.5 194.5C90.7 193.7 94 192 96.5 191.5H106.5V264.5L103 269L102 272C102 273.423 102.658 274.34 103.47 275.471C103.799 275.929 104.154 276.423 104.5 277C105.745 279.075 108.711 281.494 111.399 283.685C111.95 284.135 112.49 284.575 113 285C116 287.5 126 292 135.5 292.5C145 293 150.5 289.5 156 284C160.4 279.6 166 259 166 252C165.831 251.831 163.999 251.776 161.476 251.701H161.476C156.525 251.553 148.915 251.325 146 250C140.5 247.5 134 241.5 132.5 238.5C131.5 236.5 131.5 235.5 132.5 230C133.3 225.6 139 225.5 140.5 226C141.02 226.173 142.178 227.298 143.77 228.842C146.766 231.75 151.298 236.149 156 238.5C165 243 170 241 173 239.5C175.504 238.248 185.5 227 181 226C177.54 225.231 170.238 223.812 166.138 223.015L166.136 223.015C164.905 222.776 163.962 222.592 163.5 222.5C161 222 148.5 219.5 146 216C143.5 212.5 147.5 205 151.5 205C153.697 205 155.391 205.236 156.453 205.383C156.938 205.451 157.291 205.5 157.5 205.5C166.833 211.167 186.2 221.8 189 221C191.8 220.2 191.833 217.333 191.5 216L186 168L175.5 121C167.724 121.21 156.237 121.279 144.791 121.348H144.79C129.005 121.442 113.297 121.536 107.5 122C96.7982 122.856 90.8607 127.744 84.9811 132.584C83.9932 133.397 83.007 134.209 82 135C75 140.5 71.5 147 71 155C70.6 161.4 74.5 166.333 76.5 168L74.5 172.5C72.3333 171.833 67.1 169.2 63.5 164C59 157.5 56.5 152.5 60.5 137.5C63.7 125.5 83 113.5 93.5 112L175.5 110.5ZM123.5 173C111.074 173 101 162.926 101 150.5C101 138.074 111.074 128 123.5 128C135.926 128 146 138.074 146 150.5C146 162.926 135.926 173 123.5 173ZM123.5 161C117.701 161 113 156.299 113 150.5C113 144.701 117.701 140 123.5 140C129.299 140 134 144.701 134 150.5C134 156.299 129.299 161 123.5 161Z" fill="white"/>
<path d="M127.5 49.5V33.5H108C105.5 34.5 101.5 37.1 99.5 39.5C97 42.5 95.1667 47 94.5 49.5H127.5Z" fill="white"/>
</svg>
