<svg xmlns="http://www.w3.org/2000/svg" version="1.1" xmlns:xlink="http://www.w3.org/1999/xlink" xmlns:svgjs="http://svgjs.dev/svgjs" width="192" height="293"><svg width="192" height="293" viewBox="0 0 192 293" fill="none" xmlns="http://www.w3.org/2000/svg">
<path d="M76.8563 0H174.856C173.19 4.16667 169.356 13.2 167.356 16C164.856 19.5 151.856 25 144.356 25C136.856 25 130.856 22.5 116.356 21.5C101.856 20.5 91.3563 28 87.8563 32.5C85.0563 36.1 81.0229 45 79.3563 49C74.8563 49 64.7563 49.2 60.3563 50C55.9563 50.8 47.5229 54 43.8563 55.5C37.1896 55.3333 23.8563 54.8 23.8563 54C23.8563 53 26.8563 43.5 28.8563 39.5C30.8563 35.5 36.8563 29 42.8563 21.5C47.6563 15.5 67.5229 4.66667 76.8563 0Z" fill="black"></path>
<path fill-rule="evenodd" clip-rule="evenodd" d="M92.8563 209.5V233.5H61.8563C41.1896 227.5 0.0562592 201.5 0.856262 145.5C1.65627 89.5 44.8563 68.1667 66.3563 64.5H155.856C158.69 66 164.856 69.6 166.856 72C168.856 74.4 172.356 81.3333 173.856 84.5H72.8563C60.3563 86 22.8563 111.9 22.8563 145.5C22.8563 187.5 59.3563 209.5 64.3563 209.5H92.8563ZM175.856 110.5V98.5V97C148.023 96.8333 90.0563 96.6 80.8563 97C69.3563 97.5 55.8563 108 50.3563 114C44.8563 120 36.3563 133 36.3563 151C36.3563 169 51.3563 184 55.8563 188C60.3563 192 74.8562 196.5 78.3563 196.5C81.8563 196.5 88.3563 195.5 89.8563 194.5C91.0563 193.7 94.3563 192 96.8563 191.5H106.856V264.5L103.356 269L102.356 272C102.356 273.423 103.014 274.34 103.827 275.471C104.156 275.929 104.51 276.423 104.856 277C106.101 279.075 109.068 281.494 111.755 283.685C112.306 284.135 112.846 284.575 113.356 285C116.356 287.5 126.356 292 135.856 292.5C145.356 293 150.856 289.5 156.356 284C160.756 279.6 166.356 259 166.356 252C166.187 251.831 164.355 251.776 161.833 251.701H161.832C156.881 251.553 149.271 251.325 146.356 250C140.856 247.5 134.356 241.5 132.856 238.5C131.856 236.5 131.856 235.5 132.856 230C133.656 225.6 139.356 225.5 140.856 226C141.377 226.173 142.535 227.298 144.126 228.842C147.122 231.75 151.654 236.149 156.356 238.5C165.356 243 170.356 241 173.356 239.5C175.861 238.248 185.856 227 181.356 226C177.896 225.231 170.594 223.812 166.494 223.015L166.493 223.015C165.261 222.776 164.318 222.592 163.856 222.5C161.356 222 148.856 219.5 146.356 216C143.856 212.5 147.856 205 151.856 205C154.053 205 155.748 205.236 156.81 205.383C157.294 205.451 157.647 205.5 157.856 205.5C167.19 211.167 186.556 221.8 189.356 221C192.156 220.2 192.19 217.333 191.856 216L186.356 168L175.856 121C168.08 121.21 156.593 121.279 145.147 121.348H145.146C129.361 121.442 113.653 121.536 107.856 122C97.1544 122.856 91.217 127.744 85.3374 132.584C84.3495 133.397 83.3632 134.209 82.3562 135C75.3562 140.5 71.8562 147 71.3562 155C70.9562 161.4 74.8562 166.333 76.8562 168L74.8562 172.5C72.6896 171.833 67.4562 169.2 63.8562 164C59.3562 157.5 56.8562 152.5 60.8562 137.5C64.0562 125.5 83.3563 113.5 93.8563 112L175.856 110.5ZM123.856 173C111.43 173 101.356 162.926 101.356 150.5C101.356 138.074 111.43 128 123.856 128C136.283 128 146.356 138.074 146.356 150.5C146.356 162.926 136.283 173 123.856 173ZM123.856 161C118.057 161 113.356 156.299 113.356 150.5C113.356 144.701 118.057 140 123.856 140C129.655 140 134.356 144.701 134.356 150.5C134.356 156.299 129.655 161 123.856 161Z" fill="black"></path>
<path d="M127.856 49.5V33.5H108.356C105.856 34.5 101.856 37.1 99.8563 39.5C97.3563 42.5 95.5229 47 94.8563 49.5H127.856Z" fill="black"></path>
</svg><style>@media (prefers-color-scheme: light) { :root { filter: none; } }
@media (prefers-color-scheme: dark) { :root { filter: none; } }
</style></svg>